<?xml version="1.0" standalone="no"?>
<!DOCTYPE svg PUBLIC "-//W3C//DTD SVG 20010904//EN"
 "http://www.w3.org/TR/2001/REC-SVG-20010904/DTD/svg10.dtd">
<svg version="1.0" xmlns="http://www.w3.org/2000/svg"
 width="1280.000000pt" height="766.000000pt" viewBox="0 0 1280.000000 766.000000"
 preserveAspectRatio="xMidYMid meet">
<metadata>
Created by potrace 1.15, written by Peter Selinger 2001-2017
</metadata>
<g transform="translate(0.000000,766.000000) scale(0.100000,-0.100000)"
fill="#000000" stroke="none">
<path d="M5705 7630 c-60 -15 -480 -123 -931 -239 -452 -116 -916 -233 -1031
-260 -201 -48 -485 -142 -594 -196 -25 -13 -72 -46 -105 -73 -58 -47 -277
-210 -520 -385 l-121 -87 -1130 0 -1130 0 -26 -137 c-127 -653 -154 -2138 -62
-3293 13 -158 55 -572 59 -577 0 -1 325 2 722 7 675 7 1277 0 1317 -15 49 -20
-5 -90 -262 -344 l-216 -214 110 -105 c286 -273 466 -438 534 -490 l74 -57 76
0 c100 -1 130 -18 431 -236 379 -276 390 -283 470 -287 44 -3 88 2 125 13 56
16 155 71 169 94 13 21 62 11 111 -23 28 -18 136 -107 240 -196 201 -172 311
-259 389 -309 47 -29 50 -30 80 -14 41 20 122 81 226 168 191 161 256 187 304
122 19 -26 21 -44 25 -232 l3 -204 62 -5 c33 -3 124 -10 201 -16 77 -6 165
-17 195 -25 64 -17 159 -19 213 -4 37 10 74 42 166 142 49 54 95 77 152 77 95
0 138 18 220 96 95 88 126 100 393 145 354 59 386 70 665 231 244 141 382 205
451 210 68 5 189 61 394 182 273 162 309 175 391 140 76 -31 112 -13 596 297
l216 139 404 0 404 1 393 368 393 369 212 -4 c551 -12 1513 -22 1519 -16 17
18 74 690 99 1162 20 361 17 1391 -5 1720 -16 261 -56 688 -76 825 -12 80 -40
142 -74 167 -64 46 -94 48 -896 48 l-757 0 -289 246 c-159 136 -298 251 -309
255 -11 5 -168 45 -350 89 -747 182 -1067 261 -1800 446 -423 106 -871 220
-994 252 l-223 60 -350 -190 c-232 -126 -353 -186 -361 -180 -7 5 -114 90
-238 190 -125 100 -231 182 -235 181 -5 -1 -58 -14 -119 -29z m4015 -830 c425
-115 596 -179 727 -271 34 -24 156 -126 271 -226 l210 -182 788 -4 c801 -4
865 -7 894 -42 17 -21 37 -163 65 -470 38 -427 48 -790 42 -1455 -8 -748 -26
-1138 -70 -1480 l-12 -95 -285 -3 c-157 -1 -567 -6 -912 -10 l-628 -7 -348
-348 -347 -347 -338 0 -337 0 0 1053 0 1053 -832 830 c-941 938 -1261 1244
-1302 1244 -21 0 -173 -99 -356 -232 -179 -130 -325 -220 -350 -216 -22 5 -40
81 -51 228 -15 204 -27 301 -40 316 -16 19 -53 17 -72 -4 -29 -32 -38 -117
-50 -472 l-12 -349 -468 -351 -468 -350 -272 0 c-379 0 -497 17 -497 71 0 35
90 118 290 267 204 151 291 227 317 276 15 28 14 31 -8 49 -17 13 -32 17 -54
13 -66 -14 -218 -105 -509 -306 -120 -83 -223 -149 -227 -148 -4 2 -65 59
-134 127 -84 83 -122 128 -116 135 6 6 234 178 509 381 l499 370 8 130 c4 72
12 221 19 333 l11 203 879 483 879 483 1266 -317 c696 -175 1336 -337 1421
-360z m-3847 604 c20 -11 91 -64 156 -119 l119 -99 -27 -16 c-14 -9 -253 -142
-529 -295 -277 -153 -506 -283 -508 -289 -2 -6 -12 -161 -22 -344 -18 -331
-19 -333 -43 -350 -13 -9 -167 -124 -342 -254 -367 -275 -530 -403 -619 -486
-61 -58 -62 -59 -46 -84 26 -39 237 -250 442 -441 l190 -177 435 0 436 0 310
237 c411 313 526 406 611 495 64 65 74 82 93 146 23 76 38 92 90 92 50 0 216
93 386 216 88 63 193 138 232 165 l73 49 247 -239 c137 -132 581 -574 989
-983 l741 -743 -8 -615 c-4 -338 -8 -804 -8 -1036 -1 -388 -2 -422 -18 -436
-22 -19 -451 -277 -511 -307 -24 -13 -46 -20 -49 -18 -13 14 -23 385 -28 1083
l-6 779 -157 165 c-86 91 -290 305 -453 475 -622 652 -710 758 -744 895 -23
92 -64 125 -125 100 -37 -16 -53 -56 -54 -143 -2 -135 13 -153 977 -1152 l366
-380 1 -891 0 -891 -200 -137 c-283 -193 -315 -208 -344 -163 -31 47 -36 151
-36 782 l0 630 -317 300 c-427 405 -799 775 -861 858 -35 47 -54 84 -62 120
-19 90 -106 195 -130 157 -16 -27 -50 -166 -50 -207 0 -90 70 -166 917 -986
l353 -342 -3 -680 -2 -680 -50 -33 c-50 -33 -467 -284 -558 -336 l-49 -28 5
423 c4 463 6 478 66 593 19 35 31 73 31 96 0 36 -6 43 -97 122 -269 232 -1115
903 -1332 1058 -95 67 -120 76 -158 56 -32 -16 -140 -126 -293 -299 -52 -59
-98 -107 -103 -107 -4 0 -183 115 -398 255 -214 140 -394 255 -398 255 -18 0
-235 -207 -914 -874 l-498 -489 -62 60 c-34 33 -200 188 -368 345 -286 267
-309 286 -350 291 -24 3 -489 9 -1034 14 -545 4 -994 7 -1000 7 -12 1 -49 251
-65 443 -18 205 -25 1455 -11 1893 24 750 62 1235 100 1273 23 23 508 41 1571
58 l755 13 400 291 c220 160 405 294 411 298 6 3 281 76 610 161 329 85 687
178 794 206 346 90 662 168 770 189 58 11 114 22 125 25 11 3 61 4 110 2 66
-2 100 -7 128 -22z m-1061 -4649 c147 -104 234 -174 242 -193 9 -20 -1 -33
-145 -218 -350 -448 -1063 -1294 -1090 -1294 -6 0 -34 17 -62 37 -119 88 -707
580 -707 592 0 19 774 774 1203 1174 l179 166 126 -87 c70 -47 184 -127 254
-177z m948 73 c200 -125 550 -424 550 -470 0 -15 -58 -97 -369 -518 -599 -813
-799 -1066 -889 -1122 -30 -18 -38 -19 -96 -9 -196 34 -936 238 -936 258 0 9
99 133 414 518 576 704 939 1128 1113 1304 108 107 104 107 213 39z m778 -605
c105 -67 372 -274 425 -330 l27 -29 -88 -155 c-158 -276 -526 -866 -660 -1059
-36 -52 -92 -122 -125 -154 l-58 -59 -67 6 c-106 9 -531 113 -669 163 -24 9
-43 20 -43 26 0 38 1027 1415 1179 1581 29 32 42 33 79 10z m-4097 -96 c72
-62 257 -227 371 -333 l58 -53 -173 -155 c-176 -158 -257 -226 -269 -226 -15
0 -519 447 -517 459 1 9 275 252 355 316 38 30 76 55 85 55 9 0 49 -28 90 -63z
m792 -831 c371 -317 400 -345 386 -362 -18 -22 -212 -114 -240 -114 -15 0 -62
25 -115 62 -241 167 -554 411 -554 432 0 20 34 62 128 158 72 74 88 85 101 75
9 -7 141 -119 294 -251z m3642 -297 c4 -174 4 -314 -1 -319 -18 -16 -397 -60
-410 -47 -9 8 41 98 188 341 78 127 155 255 172 283 17 29 34 53 37 53 4 0 10
-140 14 -311z m-2531 -310 c162 -40 317 -90 323 -106 7 -19 -7 -33 -118 -118
l-99 -76 -134 120 c-133 120 -206 196 -206 214 0 14 93 0 234 -34z m1076 -284
c36 -9 106 -29 157 -46 149 -49 189 -89 132 -131 -32 -24 -158 -37 -352 -38
l-139 0 4 98 c2 65 8 105 17 115 17 22 93 22 181 2z"/>
<path d="M4306 2659 c-56 -38 -161 -150 -187 -202 -20 -38 -20 -38 0 -66 28
-39 124 -127 223 -204 92 -71 136 -97 168 -97 26 0 80 51 80 76 0 17 -59 79
-182 190 -47 42 -68 67 -68 84 0 13 20 47 45 78 50 60 55 87 24 126 -37 46
-52 49 -103 15z"/>
<path d="M5565 2557 c-47 -49 -175 -231 -188 -269 -8 -22 49 -73 183 -162 131
-87 193 -119 217 -112 35 11 66 102 45 132 -4 6 -36 30 -72 54 -77 51 -122 87
-133 106 -10 17 6 48 73 145 28 41 50 82 48 94 -3 21 -71 65 -102 65 -11 0
-43 -24 -71 -53z"/>
<path d="M6429 1962 c-82 -53 -159 -152 -159 -206 0 -33 74 -104 185 -177 125
-82 162 -78 173 16 5 44 4 46 -62 112 -36 37 -66 71 -66 75 0 5 16 31 35 59
43 62 45 100 9 128 -36 28 -62 26 -115 -7z"/>
</g>
</svg>
